# xmcd CD database file
#
# Track frame offsets:
#	150
#	22092
#	43934
#	66098
#	86423
#	107309
#	127337
#	141611
#	162964
#	181581
#	200315
#	218215
#	236975
#
# Disc length: 3448 seconds
#
# Revision: 0
# Processed by: cddbd v1.5.2PL0 Copyright (c) Steve Scherf et al.
# Submitted via: jetAudio 7
#
DISCID=bf0d760d
DTITLE=小平  - 徹夜未眠
DYEAR=1900
DGENRE=장르 없음
TTITLE0=史卡保羅市集
TTITLE1=藍眼睛的愛麗絲
TTITLE2=夢中的情話
TTITLE3=遇見
TTITLE4=想愛
TTITLE5=寂靜之聲
TTITLE6=愛的羅曼史
TTITLE7=那些花兒
TTITLE8=天黑
TTITLE9=命運的深淵
TTITLE10=歡顔
TTITLE11=我眞的受傷了
TTITLE12=直到永遠
EXTD=
EXTT0=
EXTT1=
EXTT2=
EXTT3=
EXTT4=
EXTT5=
EXTT6=
EXTT7=
EXTT8=
EXTT9=
EXTT10=
EXTT11=
EXTT12=
PLAYORDER=
